<?xml version="1.0" encoding="UTF-8" standalone="no"?>
<svg width="400" height="300" viewBox="0 0 400 300" xmlns="http://www.w3.org/2000/svg">
  <rect width="400" height="300" fill="#f3f4f6" />
  <g fill="#d1d5db">
    <path d="M156.5,107.5 L145.5,129.5 L124.5,129.5 L113.5,107.5 L124.5,85.5 L145.5,85.5 L156.5,107.5 Z" />
    <path d="M224.5,107.5 L213.5,129.5 L192.5,129.5 L181.5,107.5 L192.5,85.5 L213.5,85.5 L224.5,107.5 Z" />
    <path d="M292.5,107.5 L281.5,129.5 L260.5,129.5 L249.5,107.5 L260.5,85.5 L281.5,85.5 L292.5,107.5 Z" />
    <path d="M190.5,167.5 L179.5,189.5 L158.5,189.5 L147.5,167.5 L158.5,145.5 L179.5,145.5 L190.5,167.5 Z" />
    <path d="M258.5,167.5 L247.5,189.5 L226.5,189.5 L215.5,167.5 L226.5,145.5 L247.5,145.5 L258.5,167.5 Z" />
    <path d="M224.5,227.5 L213.5,249.5 L192.5,249.5 L181.5,227.5 L192.5,205.5 L213.5,205.5 L224.5,227.5 Z" />
  </g>
  <text x="200" y="160" font-family="Arial" font-size="16" text-anchor="middle" fill="#6b7280">
    Loading image...
  </text>
</svg>