<?xml version="1.0" encoding="UTF-8"?>
<svg width="200" height="300" viewBox="0 0 200 300" xmlns="http://www.w3.org/2000/svg">
  <!-- Hair -->
  <path d="M100,70 C60,70 50,100 55,120 C40,95 45,70 60,55 C75,40 125,40 140,55 C155,70 160,95 145,120 C150,100 140,70 100,70" fill="#3D2314" />
  
  <!-- Head -->
  <circle cx="100" cy="100" r="40" fill="#8E5C33" />
  
  <!-- Eyes -->
  <ellipse cx="85" cy="95" rx="5" ry="6" fill="#201000" />
  <ellipse cx="115" cy="95" rx="5" ry="6" fill="#201000" />
  
  <!-- Eyebrows -->
  <path d="M75,85 C80,83 90,83 95,85" fill="none" stroke="#201000" stroke-width="2" />
  <path d="M105,85 C110,83 120,83 125,85" fill="none" stroke="#201000" stroke-width="2" />
  
  <!-- Smile -->
  <path d="M85,115 C90,122 110,122 115,115" fill="none" stroke="#201000" stroke-width="2" />
  
  <!-- Neck -->
  <rect x="95" y="140" width="10" height="20" fill="#8E5C33" />
  
  <!-- Dress/Body -->
  <path d="M70,160 C70,160 40,190 40,230 C40,240 60,250 100,250 C140,250 160,240 160,230 C160,190 130,160 130,160 L70,160" fill="#DABE8B" />
  
  <!-- Patterned border on dress -->
  <path d="M70,160 L70,170 C80,180 120,180 130,170 L130,160" fill="#D4804D" />
  
  <!-- Collar/Necklace -->
  <path d="M70,160 C80,150 120,150 130,160" fill="none" stroke="#D4804D" stroke-width="4" />
  
  <!-- Arms -->
  <rect x="55" y="170" width="15" height="60" rx="7" fill="#8E5C33" />
  <rect x="130" y="170" width="15" height="60" rx="7" fill="#8E5C33" />
  
  <!-- Hands -->
  <circle cx="63" cy="235" r="8" fill="#8E5C33" />
  <circle cx="137" cy="235" r="8" fill="#8E5C33" />
  
  <!-- Accessory details: Coin necklace -->
  <circle cx="100" cy="165" r="7" fill="#F5C242" />
  <circle cx="100" cy="165" r="5" fill="#D4804D" />
  
  <!-- Earrings -->
  <circle cx="65" cy="100" r="4" fill="#F5C242" />
  <circle cx="135" cy="100" r="4" fill="#F5C242" />
</svg>