<?xml version="1.0" encoding="UTF-8"?>
<svg width="200" height="300" viewBox="0 0 200 300" xmlns="http://www.w3.org/2000/svg">
  <!-- Hair/Head Wrap -->
  <path d="M100,60 C60,60 40,80 40,100 C40,110 45,120 55,125 C45,140 40,160 60,170 C80,180 120,180 140,170 C160,160 155,140 145,125 C155,120 160,110 160,100 C160,80 140,60 100,60" fill="#DCA653" />
  
  <!-- Pattern on Head Wrap -->
  <path d="M60,100 L70,90 L80,100 L90,90 L100,100 L110,90 L120,100 L130,90 L140,100" fill="none" stroke="#8B5A2B" stroke-width="2" />
  
  <!-- Face -->
  <path d="M70,100 C70,80 130,80 130,100 C130,135 115,160 100,160 C85,160 70,135 70,100" fill="#8E5C33" />
  
  <!-- Beard -->
  <path d="M85,135 C90,145 110,145 115,135 C118,150 85,155 85,135" fill="#3D2314" />
  
  <!-- Eyes -->
  <ellipse cx="85" cy="110" rx="5" ry="4" fill="#201000" />
  <ellipse cx="115" cy="110" rx="5" ry="4" fill="#201000" />
  
  <!-- Eyebrows -->
  <path d="M75,100 C80,95 85,95 95,100" fill="none" stroke="#3D2314" stroke-width="3" />
  <path d="M105,100 C115,95 120,95 125,100" fill="none" stroke="#3D2314" stroke-width="3" />
  
  <!-- Nose -->
  <path d="M100,115 C105,120 105,125 100,130 C95,125 95,120 100,115" fill="#703D1F" />
  
  <!-- Mouth -->
  <path d="M90,140 C95,143 105,143 110,140" fill="none" stroke="#201000" stroke-width="2" />
  
  <!-- Robe/Body -->
  <path d="M60,170 C50,190 40,250 40,250 L160,250 C160,250 150,190 140,170 C120,190 80,190 60,170" fill="#6B4226" />
  
  <!-- Robe Pattern -->
  <rect x="90" y="170" width="20" height="80" fill="#8B5A2B" />
  <path d="M50,240 L60,220 L70,240 L80,220 L90,240 L110,240 L120,220 L130,240 L140,220 L150,240" fill="none" stroke="#DCA653" stroke-width="2" />
  
  <!-- Arms -->
  <rect x="55" y="170" width="15" height="50" rx="7" fill="#8E5C33" />
  <rect x="130" y="170" width="15" height="50" rx="7" fill="#8E5C33" />
  
  <!-- Hands -->
  <circle cx="63" cy="225" r="8" fill="#8E5C33" />
  <circle cx="137" cy="225" r="8" fill="#8E5C33" />
  
  <!-- Staff -->
  <rect x="150" y="150" width="5" height="140" fill="#8B5A2B" />
  <circle cx="152.5" cy="140" r="10" fill="#DCA653" />
  <path d="M142.5,140 L162.5,140" fill="none" stroke="#8B5A2B" stroke-width="2" />
  <path d="M152.5,130 L152.5,150" fill="none" stroke="#8B5A2B" stroke-width="2" />
  
  <!-- Necklace -->
  <path d="M85,170 C95,178 105,178 115,170" fill="none" stroke="#DCA653" stroke-width="3" />
  <circle cx="100" cy="175" r="5" fill="#F5C242" />
</svg>