<?xml version="1.0" encoding="UTF-8" standalone="no"?>
<svg xmlns="http://www.w3.org/2000/svg" width="400" height="400" viewBox="0 0 400 400">
  <defs>
    <pattern id="pattern" width="80" height="80" patternUnits="userSpaceOnUse">
      <!-- Triangle pattern -->
      <path d="M0,0 L40,0 L20,35 Z" fill="#FBBF24" opacity="0.8"/>
      <path d="M40,0 L80,0 L60,35 Z" fill="#FBBF24" opacity="0.7"/>
      <path d="M20,35 L60,35 L40,70 Z" fill="#FBBF24" opacity="0.9"/>
      <path d="M0,80 L40,80 L20,45 Z" fill="#FBBF24" opacity="0.7"/>
      <path d="M40,80 L80,80 L60,45 Z" fill="#FBBF24" opacity="0.8"/>
      <path d="M20,45 L60,45 L40,10 Z" fill="#FBBF24" opacity="0.6"/>
      
      <!-- Circle accents -->
      <circle cx="0" cy="0" r="4" fill="#FBBF24" opacity="0.6"/>
      <circle cx="40" cy="0" r="4" fill="#FBBF24" opacity="0.6"/>
      <circle cx="80" cy="0" r="4" fill="#FBBF24" opacity="0.6"/>
      <circle cx="0" cy="80" r="4" fill="#FBBF24" opacity="0.6"/>
      <circle cx="40" cy="80" r="4" fill="#FBBF24" opacity="0.6"/>
      <circle cx="80" cy="80" r="4" fill="#FBBF24" opacity="0.6"/>
      <circle cx="20" cy="35" r="2" fill="#FBBF24" opacity="0.8"/>
      <circle cx="60" cy="35" r="2" fill="#FBBF24" opacity="0.8"/>
      <circle cx="20" cy="45" r="2" fill="#FBBF24" opacity="0.8"/>
      <circle cx="60" cy="45" r="2" fill="#FBBF24" opacity="0.8"/>
      <circle cx="40" cy="10" r="2" fill="#FBBF24" opacity="0.8"/>
      <circle cx="40" cy="70" r="2" fill="#FBBF24" opacity="0.8"/>
    </pattern>
  </defs>
  
  <rect width="100%" height="100%" fill="url(#pattern)"/>
</svg>